<svg xmlns="http://www.w3.org/2000/svg" viewBox="25 30 240 175" fill="#000000">
<g transform="translate(0,228) scale(0.1,-0.1)">
<path d="M1195 1980 c-201 -35 -249 -46 -253 -59 -4 -11 4 -12 34 -7 59 11 30
-7 -61 -38 -97 -34 -267 -115 -315 -150 -19 -14 -64 -48 -100 -74 -100 -74
-145 -139 -191 -274 -17 -52 -18 -68 -8 -153 12 -112 27 -159 70 -221 41 -60
101 -97 202 -124 45 -12 90 -26 99 -31 10 -5 55 -20 100 -34 116 -33 195 -71
214 -103 31 -52 59 -65 144 -63 62 1 93 8 147 30 37 16 92 36 121 45 49 14 53
14 58 -2 18 -56 42 -97 77 -132 30 -29 43 -37 50 -27 5 8 6 5 3 -8 -4 -15 18
-44 92 -121 54 -56 109 -107 122 -114 32 -17 197 -60 232 -60 30 0 48 24 48
65 0 40 -47 124 -106 187 -33 37 -60 78 -74 115 -12 32 -26 63 -31 70 -13 15
-8 65 7 70 7 2 10 -12 10 -39 -1 -36 2 -43 18 -43 11 0 22 -7 24 -15 5 -13 3
-13 -11 -1 -10 7 -17 9 -17 3 0 -19 81 -74 123 -84 57 -13 142 3 245 46 108
45 168 84 230 150 62 66 83 123 58 160 -9 14 -27 28 -41 32 -33 8 -32 20 4 38
41 22 79 71 87 112 5 25 -3 72 -25 157 -57 220 -187 441 -317 539 -115 87
-294 147 -440 148 -40 0 -116 4 -170 9 -213 21 -343 21 -459 1z m110 -10 c-27
-5 -63 -8 -80 -8 l-30 0 30 8 c17 4 53 8 80 7 l50 0 -50 -7z m-155 -25 c-43
-16 -60 -18 -60 -6 0 9 32 17 75 19 11 0 5 -5 -15 -13z m600 -4 c210 -14 311
-37 413 -96 78 -44 88 -52 170 -149 139 -164 265 -516 217 -606 -21 -40 -94
-71 -187 -80 -141 -14 -350 -89 -385 -138 -7 -11 -41 -33 -76 -51 -81 -41 -92
-62 -68 -139 27 -83 51 -126 106 -187 53 -59 83 -111 95 -163 5 -25 3 -32 -8
-32 -40 0 -195 43 -221 62 -23 17 -30 18 -37 7 -7 -12 -9 -11 -10 1 -1 8 -2
20 -3 26 0 6 -52 62 -114 125 -135 135 -190 223 -125 198 18 -6 30 -6 36 0 12
12 13 11 -36 34 -21 9 -48 17 -60 17 -28 0 -158 -41 -217 -69 -30 -14 -66 -21
-108 -21 l-64 0 -51 53 c-41 42 -67 59 -122 79 -77 29 -268 89 -357 113 -34 9
-73 29 -93 46 -32 28 -51 29 -23 1 7 -7 9 -12 6 -12 -4 0 -17 15 -29 32 -16
22 -17 28 -6 19 24 -19 21 -7 -8 38 -31 47 -59 183 -53 263 6 83 71 209 141
274 91 83 129 111 212 154 82 43 349 154 443 185 111 36 251 39 622 16z m18
12 c-21 -2 -57 -2 -80 0 -24 2 -7 4 37 4 44 0 63 -2 43 -4z m554 -203 c33 -36
64 -74 70 -85 10 -21 -73 65 -99 103 -8 12 -37 36 -64 54 -60 38 -64 48 -8 16
23 -13 69 -52 101 -88z m121 -161 c16 -28 27 -53 24 -55 -3 -3 -18 20 -35 50
-17 31 -27 56 -24 56 4 0 20 -23 35 -51z m57 -114 c0 -5 6 -22 14 -36 22 -42
48 -128 43 -142 -2 -6 -10 8 -16 33 -7 25 -18 59 -26 75 -22 50 -45 107 -45
113 0 10 29 -33 30 -43z m90 -318 c0 -21 -7 -51 -15 -67 -16 -31 -82 -87 -91
-77 -3 3 8 12 24 21 16 8 40 32 52 53 23 38 23 54 5 163 -5 30 -3 28 10 -10 8
-25 15 -62 15 -83z m-120 -160 c0 -7 16 -21 35 -31 19 -11 35 -23 35 -27 0 -5
-16 3 -36 16 -43 29 -77 31 -129 9 -21 -8 -44 -13 -52 -10 -9 4 -11 2 -7 -6 5
-7 0 -9 -14 -6 -31 8 -97 -13 -80 -25 9 -6 8 -7 -4 -3 -10 3 -54 -5 -98 -18
-43 -12 -77 -19 -75 -15 8 13 170 67 236 79 35 7 74 14 87 16 13 3 20 9 17 14
-3 5 12 11 32 13 21 2 41 4 46 5 4 1 7 -4 7 -11z m-150 -13 c-30 -8 -62 -12
-70 -11 -19 4 66 25 100 25 14 0 0 -6 -30 -14z m153 -27 c45 -19 56 -36 46
-73 -23 -83 -154 -179 -317 -233 -111 -37 -154 -39 -212 -8 -63 33 -83 64 -69
105 14 40 74 70 288 142 84 29 168 58 185 66 39 17 40 17 79 1z m-439 -112
c-10 -8 -26 -15 -34 -15 -9 0 -26 -7 -38 -16 -13 -9 -22 -11 -22 -4 0 12 75
49 99 50 11 0 9 -4 -5 -15z m-146 -56 c-45 -23 -49 -51 -19 -120 27 -62 36
-97 22 -84 -15 15 -51 123 -51 156 0 30 40 69 69 69 9 -1 -1 -10 -21 -21z
m153 -391 c21 -41 25 -98 8 -115 -7 -7 -26 -7 -56 -2 -64 12 -67 20 -5 12 44
-5 53 -3 59 12 8 23 -22 110 -53 151 -13 17 -24 35 -24 39 0 13 48 -54 71 -97z"/>
<path d="M1138 1838 c-25 -20 -86 -121 -130 -216 -22 -48 -51 -112 -65 -142
-32 -68 -110 -251 -129 -303 -24 -64 -54 -118 -70 -124 -28 -11 -99 52 -137
122 -32 59 -32 225 1 310 27 70 100 172 139 195 16 8 31 19 34 23 3 4 10 7 15
5 5 -2 9 2 10 7 1 15 -36 6 -73 -17 -128 -78 -224 -329 -179 -470 24 -74 81
-154 131 -183 51 -30 59 -31 87 -3 l21 21 -8 -24 c-17 -52 -17 -109 -1 -134
49 -75 228 -42 359 67 44 37 50 39 79 29 17 -6 52 -11 78 -11 45 0 48 -2 78
-49 36 -54 95 -106 162 -142 63 -33 205 -35 266 -2 112 60 241 202 229 253 -4
18 -3 21 4 11 8 -12 11 -9 16 12 7 28 25 37 25 13 0 -8 14 -26 31 -40 40 -34
94 -34 157 -2 61 31 108 94 134 179 26 88 20 126 -38 242 -76 153 -188 272
-324 344 -102 54 -184 37 -278 -59 -38 -38 -55 -50 -64 -43 -7 6 -42 21 -78
34 -93 33 -210 33 -264 0 -82 -51 -100 -143 -46 -238 48 -84 125 -114 330
-128 197 -15 319 -57 371 -128 40 -56 39 -106 -6 -200 -41 -88 -110 -161 -198
-208 -55 -30 -71 -34 -137 -34 -83 1 -143 25 -209 84 -33 29 -71 79 -71 92 0
4 28 12 63 18 119 23 247 81 247 112 0 26 -20 29 -176 29 -182 0 -204 -9 -204
-82 l0 -37 -66 4 c-67 3 -83 8 -65 20 6 3 11 1 11 -4 0 -17 14 -13 25 8 6 10
23 39 38 64 31 50 43 121 33 192 -6 35 -26 74 -83 157 -69 101 -75 114 -70
150 3 26 0 43 -9 52 -19 20 -18 24 17 100 35 76 30 107 -13 74z m909 -69 c173
-103 345 -361 327 -488 -16 -110 -84 -201 -167 -223 -49 -13 -49 -13 -77 19
-19 21 -32 51 -39 90 -18 91 -31 134 -41 128 -5 -3 -12 0 -16 6 -4 8 -3 9 4 5
21 -13 13 16 -25 83 -80 145 -158 237 -231 275 -38 20 -48 45 -25 65 16 15 16
15 4 -2 -25 -32 -6 -26 39 13 92 81 148 87 247 29z m-516 -39 c82 -15 161 -50
154 -67 -16 -44 -17 -63 -1 -63 9 0 16 5 16 12 0 6 7 19 16 29 16 17 18 17 59
-11 77 -53 159 -161 234 -307 13 -25 0 -31 -18 -9 -33 40 -177 78 -362 96
-204 20 -264 45 -300 123 -11 25 -19 34 -19 23 0 -11 -2 -17 -5 -15 -2 3 0 33
6 66 13 72 43 107 104 122 54 12 55 12 116 1z m-461 -35 c-10 -12 -10 -15 0
-15 7 0 10 -7 6 -16 -3 -8 1 -31 9 -50 13 -33 13 -46 -10 -161 -42 -212 -30
-300 52 -385 20 -21 35 -39 32 -41 -47 -40 -119 -92 -141 -103 -71 -37 -198
-35 -212 2 -8 20 28 173 50 215 8 17 13 38 9 47 -3 9 -3 13 2 9 10 -11 55 92
46 107 -3 6 -2 8 2 3 12 -11 155 276 155 310 0 20 -3 24 -9 14 -10 -15 -31 -7
-31 12 0 8 3 7 9 -2 7 -11 10 -9 16 8 4 13 4 25 1 28 -3 3 -1 14 5 25 6 11 13
17 16 14 3 -3 0 -12 -7 -21z m50 -80 c4 3 10 -13 12 -35 2 -22 2 -40 1 -40 -5
0 -33 73 -32 84 0 7 2 6 6 -2 2 -6 8 -10 13 -7z m-94 -60 c1 -8 -2 -15 -6 -15
-5 0 -12 -9 -15 -20 -3 -11 -10 -20 -15 -20 -5 0 -1 18 8 39 17 39 24 43 28
16z m150 -92 c102 -146 116 -216 64 -320 -43 -86 -54 -93 -90 -58 -47 45 -73
126 -67 210 4 61 36 235 43 235 1 0 24 -30 50 -67z m-221 -17 c-10 -20 -22
-39 -27 -42 -6 -4 -5 3 1 14 6 11 16 33 21 48 6 15 13 24 16 21 3 -3 -2 -22
-11 -41z m1440 -123 l4 -68 -8 60 c-5 33 -12 69 -16 80 -6 16 -5 18 5 8 7 -6
14 -42 15 -80z m-43 -180 c-6 -10 -25 -31 -44 -48 l-33 -30 26 30 c15 17 32
41 39 53 6 13 14 21 17 19 2 -3 0 -14 -5 -24z m-698 -49 c3 -8 2 -13 -3 -9 -5
3 -49 -8 -98 -24 -48 -17 -113 -31 -143 -33 -54 -3 -55 -3 -58 27 -6 48 15 55
164 55 110 0 133 -3 138 -16z"/>
</g>
</svg>
